<?xml version="1.0" encoding="utf-8"?>
<!-- Generator: Adobe Illustrator 23.0.2, SVG Export Plug-In . SVG Version: 6.00 Build 0)  -->
<svg version="1.1" id="Layer_1" xmlns="http://www.w3.org/2000/svg" xmlns:xlink="http://www.w3.org/1999/xlink" x="0px" y="0px"
	 viewBox="0 0 424.26 167.33" style="enable-background:new 0 0 424.26 167.33;" xml:space="preserve">
<style type="text/css">
	.st0{fill:#565657;}
	.st1{fill:#95C11F;}
	.st2{fill:#006633;}
	.st3{fill:#FFFFFF;}
</style>
<g>
	<path class="st0" d="M173.88,59.96c0-6.79,4.24-11.32,10.18-11.32c5.66,0,8.91,3.11,10.18,8.49c3.82-6.22,11.74-9.33,19.38-9.33
		c21.92,0,32.81,20.51,32.81,40.31c0,19.24-13.01,38.33-33.52,38.33c-6.36,0-13.29-2.4-18.67-7.07v24.89
		c0,6.79-4.24,11.32-10.18,11.32c-5.94,0-10.18-4.53-10.18-11.32V59.96z M210.23,107.77c10.61,0,15.84-11.03,15.84-20.51
		c0-9.62-5.23-20.79-15.84-20.79c-10.89,0-15.98,10.18-15.98,20.08S199.06,107.77,210.23,107.77z"/>
	<path class="st1" d="M273.6,29.27c0,6.36-5.09,11.74-11.46,11.74c-6.08,0-11.45-5.52-11.45-11.74c0-5.8,5.37-11.17,11.45-11.17
		C268.23,18.09,273.6,23.33,273.6,29.27z"/>
	<path class="st2" d="M251.96,59.96c0-6.79,4.24-11.32,10.18-11.32c5.94,0,10.18,4.53,10.18,11.32v54.31
		c0,6.79-4.24,11.32-10.18,11.32c-5.94,0-10.18-4.53-10.18-11.32V59.96z"/>
	<path class="st0" d="M280.81,59.96c0-6.79,4.24-11.32,10.18-11.32c5.23,0,8.63,2.83,9.33,7.64c4.95-5.38,11.46-8.49,18.95-8.49
		c8.49,0,15.7,3.54,21.07,10.33c5.66-6.51,14.57-10.33,21.5-10.33c16.55,0,27.86,9.62,27.86,27.44v39.04
		c0,6.79-4.24,11.32-10.18,11.32c-5.94,0-10.18-4.53-10.18-11.32v-35.5c0-8.2-4.53-14-11.88-14c-7.5,0-12.02,5.8-12.02,14v35.5
		c0,6.79-4.24,11.32-10.18,11.32c-5.94,0-10.18-4.53-10.18-11.32v-35.5c0-8.2-4.52-14-11.88-14c-8.34,0-12.02,5.8-12.02,14v35.5
		c0,6.79-4.24,11.32-10.18,11.32c-5.94,0-10.18-4.53-10.18-11.32V59.96z"/>
	<g>
		<path class="st0" d="M207.9,151.08v6.87h-2.24v-15.28c0-1.08,0-2.21-0.03-3.25h2.19c0.05,0.44,0.08,1.25,0.08,2.09
			c0.71-1.34,2.03-2.41,4.26-2.41c3.01,0,5.2,2.58,5.2,6.62c0,4.75-2.51,7.31-5.67,7.31C209.59,153.04,208.49,152.14,207.9,151.08z
			 M215.04,145.83c0-2.82-1.26-4.75-3.48-4.75c-2.7,0-3.77,1.74-3.77,4.98c0,3.14,0.87,5.05,3.59,5.05
			C213.77,151.1,215.04,149.1,215.04,145.83z"/>
		<path class="st0" d="M230.77,148.85c0,1.29,0.02,3.09,0.03,3.88h-2.19c-0.05-0.35-0.08-1.16-0.09-1.99
			c-0.64,1.47-1.9,2.31-3.95,2.31c-2.2,0-4.3-1.12-4.3-4.87v-8.75h2.23v8.26c0,1.75,0.54,3.36,2.7,3.36c2.4,0,3.32-1.36,3.32-4.68
			v-6.94h2.25V148.85z"/>
		<path class="st0" d="M233.24,139.43h2.25v-3.92h2.25v3.92h2.88v1.87h-2.88v7.79c0,1.29,0.31,1.96,1.49,1.96
			c0.31,0,0.78-0.02,1.14-0.11v1.73c-0.55,0.21-1.33,0.25-1.95,0.25c-2.03,0-2.92-1.07-2.92-3.28v-8.33h-2.25V139.43z"/>
		<path class="st0" d="M241.05,139.43h2.25v-3.92h2.25v3.92h2.88v1.87h-2.88v7.79c0,1.29,0.31,1.96,1.49,1.96
			c0.31,0,0.78-0.02,1.14-0.11v1.73c-0.55,0.21-1.33,0.25-1.95,0.25c-2.03,0-2.92-1.07-2.92-3.28v-8.33h-2.25V139.43z"/>
		<path class="st0" d="M250.82,133.47h2.25v2.87h-2.25V133.47z M250.82,139.43h2.25v13.3h-2.25V139.43z"/>
		<path class="st0" d="M256.92,142.78c0-1.15,0-2.32-0.03-3.35h2.19c0.06,0.39,0.1,1.79,0.09,2.19c0.52-1.14,1.58-2.5,4.1-2.5
			c2.44,0,4.35,1.52,4.35,5.06v8.55h-2.25v-8.26c0-2.01-0.77-3.36-2.76-3.36c-2.46,0-3.45,1.91-3.45,4.58v7.04h-2.25V142.78z"/>
		<path class="st0" d="M282.19,151.53c0,4.26-1.72,6.69-5.98,6.69c-3.95,0-5.16-2.26-5.4-4.07h2.29c0.38,1.46,1.53,2.23,3.2,2.23
			c2.96,0,3.69-1.92,3.69-4.98v-1.08c-0.69,1.49-1.89,2.33-4.07,2.33c-3.21,0-5.39-2.67-5.39-6.57c0-4.34,2.48-6.98,5.63-6.98
			c2.48,0,3.54,1.19,3.84,2.08c0.03-0.6,0.08-1.48,0.1-1.76h2.13c-0.01,0.77-0.04,2.56-0.04,3.84V151.53z M272.87,146
			c0,2.81,1.43,4.71,3.56,4.71c2.81,0,3.63-1.93,3.63-4.88c0-2.99-0.77-4.76-3.56-4.76C274.1,141.06,272.87,143.12,272.87,146z"/>
		<path class="st0" d="M303.37,133.47v15.5c0,1.25,0,2.48,0.03,3.76h-2.16c-0.06-0.35-0.1-1.37-0.11-1.89
			c-0.64,1.39-1.96,2.2-4.1,2.2c-3.35,0-5.41-2.77-5.41-6.83c0-4.09,2.22-7.1,5.82-7.1c2.31,0,3.33,0.95,3.68,1.7v-7.34H303.37z
			 M293.95,146.14c0,3.21,1.5,4.95,3.54,4.95c3.05,0,3.72-2.29,3.72-5.21c0-2.96-0.61-4.82-3.54-4.82
			C295.37,141.06,293.95,142.92,293.95,146.14z"/>
		<path class="st0" d="M316.76,149.83c0,1.21,0.1,2.52,0.18,2.9h-2.15c-0.1-0.3-0.18-0.93-0.21-1.74c-0.46,0.89-1.5,2.06-4.02,2.06
			c-3.07,0-4.38-2.04-4.38-4.06c0-2.97,2.28-4.33,6.16-4.33c0.91,0,1.74,0,2.22,0v-1.13c0-1.17-0.37-2.6-2.81-2.6
			c-2.18,0-2.54,1.1-2.78,2.14h-2.18c0.17-1.83,1.28-3.95,5.03-3.94c3.18,0.01,4.95,1.33,4.95,4.36V149.83z M314.57,146.24
			c-0.42,0-1.41,0-2.11,0c-2.6,0-3.99,0.73-3.99,2.61c0,1.38,0.93,2.39,2.54,2.39c3.14,0,3.56-2.16,3.56-4.57V146.24z"/>
		<path class="st0" d="M318.8,139.43h2.25v-3.92h2.25v3.92h2.88v1.87h-2.88v7.79c0,1.29,0.31,1.96,1.49,1.96
			c0.31,0,0.78-0.02,1.14-0.11v1.73c-0.55,0.21-1.33,0.25-1.95,0.25c-2.03,0-2.92-1.07-2.92-3.28v-8.33h-2.25V139.43z"/>
		<path class="st0" d="M338.33,149.83c0,1.21,0.1,2.52,0.18,2.9h-2.15c-0.1-0.3-0.18-0.93-0.21-1.74c-0.46,0.89-1.5,2.06-4.02,2.06
			c-3.07,0-4.38-2.04-4.38-4.06c0-2.97,2.28-4.33,6.16-4.33c0.91,0,1.74,0,2.22,0v-1.13c0-1.17-0.37-2.6-2.81-2.6
			c-2.18,0-2.54,1.1-2.78,2.14h-2.18c0.17-1.83,1.28-3.95,5.03-3.94c3.18,0.01,4.95,1.33,4.95,4.36V149.83z M336.13,146.24
			c-0.42,0-1.41,0-2.11,0c-2.6,0-3.99,0.73-3.99,2.61c0,1.38,0.93,2.39,2.54,2.39c3.14,0,3.56-2.16,3.56-4.57V146.24z"/>
		<path class="st0" d="M349.12,152.73V141.3h-2.1v-1.87h2.1v-1.59c0-2.45,0.92-4.63,3.79-4.63c0.48,0,1.12,0.07,1.44,0.17v1.95
			c-0.31-0.08-0.79-0.12-1.14-0.12c-1.34,0-1.84,0.82-1.84,2.77v1.45h2.61v1.87h-2.61v11.43H349.12z"/>
		<path class="st0" d="M356.17,133.47h2.25v2.87h-2.25V133.47z M356.17,139.43h2.25v13.3h-2.25V139.43z"/>
		<path class="st0" d="M362.27,143.04c0-1.86-0.02-2.91-0.03-3.61h2.21c0.04,0.37,0.07,1.42,0.07,2.71c0.68-1.8,2.23-2.96,4.39-3.03
			v2.29c-2.67,0.08-4.39,1.51-4.39,4.87v6.46h-2.25V143.04z"/>
		<path class="st0" d="M372.48,148.92c0.37,1.45,1.43,2.31,3.19,2.31c1.91,0,2.67-0.84,2.67-2.05c0-1.24-0.6-1.82-3.08-2.44
			c-3.72-0.92-4.5-2.09-4.5-3.89c0-1.88,1.35-3.74,4.7-3.74c3.36,0,4.74,1.99,4.91,3.84h-2.18c-0.19-0.86-0.83-2.06-2.83-2.06
			c-1.83,0-2.37,0.9-2.37,1.77c0,0.99,0.54,1.48,2.92,2.07c3.95,0.96,4.74,2.3,4.74,4.28c0,2.33-1.81,4.03-5.05,4.03
			c-3.38,0-5.03-1.74-5.36-4.12H372.48z"/>
		<path class="st0" d="M381.77,139.43h2.25v-3.92h2.25v3.92h2.88v1.87h-2.88v7.79c0,1.29,0.31,1.96,1.49,1.96
			c0.31,0,0.78-0.02,1.14-0.11v1.73c-0.55,0.21-1.33,0.25-1.95,0.25c-2.03,0-2.92-1.07-2.92-3.28v-8.33h-2.25V139.43z"/>
	</g>
	<path class="st2" d="M88.65,51.56c-0.28,0-0.57,0.01-0.85,0.01C73.35,51.9,63.65,63.11,62.06,77.02h53.01
		C113.22,62.5,104.04,51.66,88.65,51.56z"/>
	<g>
		<path class="st3" d="M62.75,99.24c2.31,16.43,15.97,24.07,31.48,24.07c17.13,0,28.93-13.43,37.73-13.43
			c7.18,0,13.66,7.18,13.66,14.35c0,14.35-29.63,28.24-54.4,28.24c-37.5,0-62.5-27.31-62.5-64.12c0-33.8,24.54-64.58,59.72-64.58
			c36.11,0,59.95,32.87,59.95,60.65c0,9.95-4.4,14.81-14.58,14.81H62.75z M115.07,77.02c-1.85-14.58-11.11-25.46-26.62-25.46
			c-14.81,0-24.77,11.34-26.39,25.46H115.07z"/>
	</g>
	<g>
		<path class="st1" d="M28.72,88.36c0-33.8,24.54-64.58,59.72-64.58c36.11,0,59.95,32.87,59.95,60.65c0,9.95-4.4,14.81-14.58,14.81
			H62.75c2.31,16.43,15.97,24.07,31.48,24.07c17.13,0,28.93-13.43,37.73-13.43c7.18,0,13.66,7.18,13.66,14.35
			c0,1.67-0.42,3.33-1.17,4.97c11.98-12.71,19.33-29.83,19.33-48.67c0-39.21-31.79-71-71-71s-71,31.79-71,71
			c0,20.26,8.5,38.53,22.12,51.47C34.21,120.77,28.72,105.61,28.72,88.36z"/>
	</g>
</g>
</svg>
