<?xml version="1.0" encoding="utf-8"?>
<svg id="Layer_1" data-name="Layer 1" xmlns="http://www.w3.org/2000/svg" viewBox="0 0 30 30">
    <defs>
        <style>.cls-1{fill:#fff;}</style>
    </defs>
    <path class="cls-1"
          d="M0,0V30H30V0ZM10.3,23.58a8.22,8.22,0,0,1,0-16.44,7.88,7.88,0,0,1,5.51,2.15l-2.23,2.15a4.62,4.62,0,0,0-3.28-1.27,5.19,5.19,0,0,0,0,10.38A4.43,4.43,0,0,0,15,17H10.3V14.18h7.77a7.85,7.85,0,0,1,.12,1.37C18.19,20.24,15.05,23.58,10.3,23.58Zm17.62-7H25.57v2.35H23.22V16.53H20.87V14.18h2.35V11.84h2.35v2.34h2.35Z"/>
</svg>