<?xml version="1.0" encoding="utf-8"?>
<svg id="Layer_1" data-name="Layer 1" xmlns="http://www.w3.org/2000/svg" viewBox="0 0 30 30">
    <defs>
        <style>.cls-1{fill:#fff;}</style>
    </defs>
    <path id="Path_10048" data-name="Path 10048" class="cls-1"
          d="M0,0V30H30V0ZM11.06,22.11h-3V12.62h3Zm-.25-11.3A1.7,1.7,0,0,1,8.4,8.4h0a1.7,1.7,0,0,1,2.41,2.41Zm11.3,11.3H19.16V17.48A5.37,5.37,0,0,0,19,15.83,1.35,1.35,0,0,0,17.6,15a1.5,1.5,0,0,0-1.43.76,3.47,3.47,0,0,0-.31,1.68v4.7H12.94V12.62h2.82v1.3h0a2.52,2.52,0,0,1,1-1.05,3.21,3.21,0,0,1,1.78-.51,3.16,3.16,0,0,1,2.88,1.3,6.5,6.5,0,0,1,.64,3.24Z"/>
</svg>