<?xml version="1.0" encoding="utf-8"?>
<svg xmlns="http://www.w3.org/2000/svg" xmlns:xlink="http://www.w3.org/1999/xlink" viewBox="0 0 153.77 27.95">
    <defs>
        <style>.cls-1{fill:none;}.cls-2{fill:#fff;}.cls-3{clip-path:url(#clip-path);}.cls-4{fill:#ed1c24;}</style>
        <clipPath id="clip-path" transform="translate(0 0)">
            <rect class="cls-1" width="153.76" height="27.95"/>
        </clipPath>
    </defs>
    <g id="Layer_2" data-name="Layer 2">
        <g id="Layer_1-2" data-name="Layer 1">
            <polygon class="cls-2" points="0 0 0 27.62 15.54 27.62 15.54 22.42 6.73 22.42 6.73 0 0 0"/>
            <rect class="cls-2" x="17.78" width="6.73" height="27.62"/>
            <polygon class="cls-2" points="47.21 0 40.32 20.85 33.48 0 26.32 0 36.11 27.62 44.53 27.62 54.33 0 47.21 0"/>
            <polygon class="cls-2" points="56.14 0 56.14 27.62 73.05 27.62 73.05 22.23 62.87 22.23 62.87 16.17 71.87 16.17 71.87 10.98 62.87 10.98 62.87 5.39 73.05 5.39 73.05 0 56.14 0"/>
            <g class="cls-3">
                <path class="cls-4"
                      d="M76.82,12.11a8.89,8.89,0,0,1,3.46-3.6A11,11,0,0,1,91.44,9a8.48,8.48,0,0,1,3.17,5H91a5.18,5.18,0,0,0-2-2.89,6.16,6.16,0,0,0-3.68-1.06A5.93,5.93,0,0,0,80.73,12,8.05,8.05,0,0,0,79,17.55a8.15,8.15,0,0,0,1.75,5.6,5.89,5.89,0,0,0,4.62,2,6.2,6.2,0,0,0,3.66-1,5.18,5.18,0,0,0,2-2.93h3.59a8.81,8.81,0,0,1-3.22,4.93,9.68,9.68,0,0,1-6,1.85,10,10,0,0,1-5.07-1.28A9,9,0,0,1,76.82,23a11.52,11.52,0,0,1-1.25-5.49,11.38,11.38,0,0,1,1.25-5.44"
                      transform="translate(0 0)"/>
                <path class="cls-4"
                      d="M112.18,8.16a6.89,6.89,0,0,1,2.87,2.91,9.8,9.8,0,0,1,1,4.72V27.62h-3.3V16.27a6.44,6.44,0,0,0-1.5-4.59,5.34,5.34,0,0,0-4.1-1.6A5.48,5.48,0,0,0,103,11.73a6.73,6.73,0,0,0-1.56,4.8V27.62H98.12V.53h3.33v9.88A6.6,6.6,0,0,1,104.18,8a8.86,8.86,0,0,1,3.9-.84,8.59,8.59,0,0,1,4.1,1"
                      transform="translate(0 0)"/>
                <path class="cls-4"
                      d="M135.46,13.6A6.41,6.41,0,0,0,133,11a7,7,0,0,0-6.83,0,6.37,6.37,0,0,0-2.45,2.56,8.14,8.14,0,0,0-.91,4,8.33,8.33,0,0,0,.91,4,6.48,6.48,0,0,0,2.45,2.6,6.63,6.63,0,0,0,3.41.9,6.72,6.72,0,0,0,3.42-.9,6.4,6.4,0,0,0,2.47-2.6,8.25,8.25,0,0,0,.92-4,8.15,8.15,0,0,0-.92-4m-14.82-1.49a9,9,0,0,1,3.42-3.6,9.42,9.42,0,0,1,4.85-1.28,8.93,8.93,0,0,1,4.57,1.13,7.59,7.59,0,0,1,2.9,2.86V7.56h3.37V27.62h-3.37V23.88a7.71,7.71,0,0,1-2.95,2.91A8.83,8.83,0,0,1,128.87,28,9.08,9.08,0,0,1,124,26.63a9.23,9.23,0,0,1-3.4-3.7,11.49,11.49,0,0,1-1.25-5.42,11.27,11.27,0,0,1,1.25-5.4"
                      transform="translate(0 0)"/>
                <path class="cls-4" d="M148.53,10.3V22.13a2.86,2.86,0,0,0,.62,2.07,3.1,3.1,0,0,0,2.16.6h2.46v2.82h-3a6,6,0,0,1-4.17-1.28,5.5,5.5,0,0,1-1.39-4.21V10.3h-2.6V7.56h2.6v-5h3.33V7.56h5.24V10.3Z"
                      transform="translate(0 0)"/>
            </g>
        </g>
    </g>
</svg>