<?xml version="1.0" encoding="utf-8"?>
<svg xmlns="http://www.w3.org/2000/svg" xmlns:xlink="http://www.w3.org/1999/xlink" viewBox="0 0 36.03 27.95">
    <defs>
        <style>.cls-1{fill:none;}.cls-2{clip-path:url(#clip-path);}.cls-3{fill:#fff;}</style>
        <clipPath id="clip-path" transform="translate(0 0)">
            <rect class="cls-1" width="36.03" height="27.95"/>
        </clipPath>
    </defs>
    <g id="Layer_2" data-name="Layer 2">
        <g id="Layer_1-2" data-name="Layer 1">
            <g class="cls-2">
                <path class="cls-3"
                      d="M18,2.39l-.42.34a11.13,11.13,0,0,0,0,16.8l.42.35a4.87,4.87,0,0,0,.42-.35,11.11,11.11,0,0,0,0-16.8A4.78,4.78,0,0,0,18,2.39M24.89,0a11.12,11.12,0,0,0-6.16,1.86l.27.22a12,12,0,0,1,0,18.1l-.27.23A11.14,11.14,0,1,0,24.89,0M17,20.18c.08.08.18.15.27.23a11.14,11.14,0,1,1,0-18.55L17,2.08a12,12,0,0,0,0,18.1m13.39,7.39v.07h.1s0,0,0,0,0,0,0,0h-.1Zm.06-.05s.07,0,.09,0a.14.14,0,0,1,0,.06s0,0,0,.06l-.06,0,.09.1h-.07l-.09-.1h0v.1h-.06v-.27Zm0,.36a.15.15,0,0,0,.09,0l.07,0a.56.56,0,0,0,.05-.08.22.22,0,0,0,0-.09.28.28,0,0,0,0-.09l-.05-.07-.07,0h-.18l-.08,0a.25.25,0,0,0,0,.07.15.15,0,0,0,0,.09s0,.07,0,.09a.14.14,0,0,0,.12.12.13.13,0,0,0,.09,0m0-.52.11,0,.1.07a.15.15,0,0,1,.06.09.2.2,0,0,1,0,.11.27.27,0,0,1,0,.12.24.24,0,0,1-.06.09.21.21,0,0,1-.1.06.2.2,0,0,1-.11,0,.27.27,0,0,1-.12,0,.21.21,0,0,1-.1-.06l-.06-.09a.25.25,0,0,1,0-.12.2.2,0,0,1,0-.11.35.35,0,0,1,.06-.09l.1-.07.12,0M26,24.84a1.28,1.28,0,0,1,.46.08l-.2.6a1.16,1.16,0,0,0-.4-.07c-.42,0-.63.27-.63.76v1.66h-.64v-3h.63v.36a.88.88,0,0,1,.78-.43m-2.22.66H22.75v1.33c0,.3.1.5.42.5a1.2,1.2,0,0,0,.57-.17l.19.55a1.56,1.56,0,0,1-.81.23c-.76,0-1-.41-1-1.09V25.5h-.6v-.59h.6V24h.65v.89H23.8Zm-3.09.17a1.9,1.9,0,0,0-.92-.26c-.35,0-.56.13-.56.35s.22.25.5.29l.3,0c.64.1,1,.37,1,.89s-.49,1-1.34,1a2.13,2.13,0,0,1-1.28-.38l.3-.5a1.63,1.63,0,0,0,1,.31c.44,0,.68-.13.68-.36s-.17-.26-.52-.31l-.31,0c-.66-.1-1-.39-1-.88s.48-.94,1.22-.94a2.18,2.18,0,0,1,1.21.31Zm-4.9.46a.76.76,0,0,1,.78-.72.73.73,0,0,1,.75.72Zm2.2.26a1.42,1.42,0,0,0-1.41-1.55,1.55,1.55,0,0,0,0,3.1,1.81,1.81,0,0,0,1.21-.41l-.32-.48a1.38,1.38,0,0,1-.86.31.82.82,0,0,1-.88-.72H18a2,2,0,0,0,0-.25m10.25-.95a1.06,1.06,0,0,0-.37.07.84.84,0,0,0-.29.2.79.79,0,0,0-.2.3,1.07,1.07,0,0,0,0,.76.79.79,0,0,0,.2.3.84.84,0,0,0,.29.2,1.06,1.06,0,0,0,.37.07,1,1,0,0,0,.36-.07.88.88,0,0,0,.3-.2.91.91,0,0,0,.19-.3,1.07,1.07,0,0,0,0-.76.91.91,0,0,0-.19-.3.88.88,0,0,0-.3-.2,1,1,0,0,0-.36-.07m0-.6a1.9,1.9,0,0,1,.63.11,1.56,1.56,0,0,1,.5.33,1.39,1.39,0,0,1,.34.49,1.66,1.66,0,0,1,0,1.24,1.52,1.52,0,0,1-.84.81,1.74,1.74,0,0,1-1.27,0,1.38,1.38,0,0,1-.5-.32,1.51,1.51,0,0,1-.33-.49,1.66,1.66,0,0,1,0-1.24,1.51,1.51,0,0,1,.33-.49,1.56,1.56,0,0,1,.5-.33,1.91,1.91,0,0,1,.64-.11M12.12,26.39a.9.9,0,1,1,1.79,0,.9.9,0,1,1-1.79,0m2.39,0V24.91h-.64v.36a1.12,1.12,0,0,0-.93-.43,1.55,1.55,0,0,0,0,3.1,1.12,1.12,0,0,0,.93-.43v.36h.64Zm-3.62,1.48V26a1.09,1.09,0,0,0-1.16-1.17,1.14,1.14,0,0,0-1,.52,1.08,1.08,0,0,0-1-.52,1,1,0,0,0-.87.44v-.37H6.21v3h.65V26.23a.69.69,0,0,1,.72-.79c.43,0,.64.28.64.78v1.65h.65V26.23a.7.7,0,0,1,.72-.79c.44,0,.65.28.65.78v1.65ZM35.68,18V17.6h-.11l-.13.3-.13-.3h-.12V18h.08v-.32l.12.28h.09l.12-.28V18ZM35,18v-.36h.15V17.6h-.37v.07h.15V18Z"
                      transform="translate(0 0)"/>
            </g>
        </g>
    </g>
</svg>