<?xml version="1.0" encoding="utf-8"?>
<svg xmlns="http://www.w3.org/2000/svg" xmlns:xlink="http://www.w3.org/1999/xlink" viewBox="0 0 35.93 27.95">
    <defs>
        <style>.cls-1{fill:none;}.cls-2{clip-path:url(#clip-path);}.cls-3{fill:#fff;}</style>
        <clipPath id="clip-path" transform="translate(0 0)">
            <rect class="cls-1" width="35.93" height="27.95"/>
        </clipPath>
    </defs>
    <g id="Layer_2" data-name="Layer 2">
        <g id="Layer_1-2" data-name="Layer 1">
            <g class="cls-2">
                <path class="cls-3"
                      d="M18,2.38l-.42.35a11.09,11.09,0,0,0,0,16.75l.42.35a4.87,4.87,0,0,0,.42-.35,11.09,11.09,0,0,0,0-16.75A4.87,4.87,0,0,0,18,2.38M24.83,0a11,11,0,0,0-6.15,1.86l.27.22a12,12,0,0,1,0,18l-.27.22A11.1,11.1,0,1,0,24.83,0M17,20.13l.27.22A11.1,11.1,0,1,1,11.1,0a11,11,0,0,1,6.15,1.86L17,2.08a11.94,11.94,0,0,0,0,18M35.58,18v-.43h-.11l-.13.3-.13-.3H35.1V18h.08v-.32l.12.28h.08l.12-.28V18Zm-.71,0v-.35H35v-.08h-.36v.08h.14V18Zm.35,9.59v.07h.1s0,0,0,0,0,0,0,0h-.1Zm.06-.05s.06,0,.08,0a.09.09,0,0,1,0,.06.08.08,0,0,1,0,.06l-.07,0,.09.1h-.07l-.08-.1h0v.1h-.06v-.27Zm0,.36a.11.11,0,0,0,.08,0l.07,0a.14.14,0,0,0,0-.08s0,0,0-.09a.11.11,0,0,0,0-.08.14.14,0,0,0,0-.08l-.07,0h-.18l-.07,0a.56.56,0,0,0-.05.08.19.19,0,0,0,0,.08.22.22,0,0,0,0,.09.56.56,0,0,0,.05.08l.07,0a.16.16,0,0,0,.1,0m0-.52.11,0,.1.07a.7.7,0,0,1,.06.09.22.22,0,0,1,0,.11.25.25,0,0,1,0,.12l-.06.09a.21.21,0,0,1-.1.06.23.23,0,0,1-.11,0,.21.21,0,0,1-.12,0,.21.21,0,0,1-.1-.06.47.47,0,0,1-.06-.09.25.25,0,0,1,0-.12.22.22,0,0,1,0-.11.28.28,0,0,1,.06-.09l.1-.07.12,0M7.76,26.31a.9.9,0,1,1,.9,1,.89.89,0,0,1-.9-1m2.39,0V24.84H9.51v.36a1.11,1.11,0,0,0-.93-.43,1.55,1.55,0,0,0,0,3.09,1.11,1.11,0,0,0,.93-.43v.36h.64Zm21.66,0a.89.89,0,1,1,.89,1,.89.89,0,0,1-.89-1m2.39,0V23.66h-.65V25.2a1.1,1.1,0,0,0-.93-.43,1.55,1.55,0,0,0,0,3.09,1.1,1.1,0,0,0,.93-.43v.36h.65Zm-16.09-1a.73.73,0,0,1,.74.72H17.32a.76.76,0,0,1,.79-.72m0-.57a1.44,1.44,0,0,0-1.47,1.54,1.45,1.45,0,0,0,1.51,1.55,1.8,1.8,0,0,0,1.21-.41L19.06,27a1.42,1.42,0,0,1-.86.31.81.81,0,0,1-.88-.72h2.19c0-.08,0-.16,0-.25a1.42,1.42,0,0,0-1.4-1.54m7.74,1.54a.89.89,0,1,1,.89,1,.89.89,0,0,1-.89-1m2.38,0V24.84H27.6v.36a1.1,1.1,0,0,0-.93-.43,1.55,1.55,0,0,0,0,3.09,1.1,1.1,0,0,0,.93-.43v.36h.64Zm-6,0a1.49,1.49,0,0,0,1.57,1.55,1.56,1.56,0,0,0,1.06-.35L24.56,27a1.25,1.25,0,0,1-.77.27.95.95,0,0,1,0-1.89,1.25,1.25,0,0,1,.77.27l.31-.52a1.51,1.51,0,0,0-1.06-.35,1.48,1.48,0,0,0-1.57,1.54m8.26-1.54a.88.88,0,0,0-.78.43v-.36h-.63v2.95h.64V26.14c0-.49.21-.76.63-.76a1.12,1.12,0,0,1,.4.07l.2-.6a1.28,1.28,0,0,0-.46-.08m-17.18.31a2.14,2.14,0,0,0-1.2-.31c-.75,0-1.23.35-1.23.94s.36.78,1,.87l.3,0c.35.05.52.14.52.31s-.24.36-.67.36a1.57,1.57,0,0,1-1-.31l-.3.5a2.13,2.13,0,0,0,1.28.38c.85,0,1.34-.4,1.34-1s-.39-.79-1-.88l-.3,0c-.28,0-.5-.1-.5-.29s.21-.35.56-.35a1.91,1.91,0,0,1,.92.25Zm8.27-.31a.88.88,0,0,0-.78.43v-.36h-.63v2.95h.64V26.14c0-.49.21-.76.63-.76a1.16,1.16,0,0,1,.4.07l.2-.6a1.31,1.31,0,0,0-.46-.08m-5.47.07H15.07V24h-.65v.89h-.59v.59h.59v1.34c0,.69.27,1.09,1,1.09a1.42,1.42,0,0,0,.8-.23l-.19-.54a1.17,1.17,0,0,1-.56.16c-.32,0-.43-.19-.43-.49V25.43h1.05ZM6.54,27.79V25.94a1.09,1.09,0,0,0-1.16-1.17,1.14,1.14,0,0,0-1,.52,1.06,1.06,0,0,0-1-.52,1,1,0,0,0-.87.43v-.36H1.86v2.95h.65V26.15a.69.69,0,0,1,.72-.78c.43,0,.64.28.64.78v1.64h.65V26.15a.7.7,0,0,1,.72-.78c.44,0,.65.28.65.78v1.64Z"
                      transform="translate(0 0)"/>
            </g>
        </g>
    </g>
</svg>