<?xml version="1.0" encoding="utf-8"?>
<svg xmlns="http://www.w3.org/2000/svg" xmlns:xlink="http://www.w3.org/1999/xlink" viewBox="0 0 66.55 17.08">
    <defs>
        <style>.cls-1{fill:none;}.cls-2{clip-path:url(#clip-path);}.cls-3{fill:#fff;}</style>
        <clipPath id="clip-path" transform="translate(0 0)">
            <rect class="cls-1" width="66.55" height="17.08"/>
        </clipPath>
    </defs>
    <g id="Layer_2" data-name="Layer 2">
        <g id="Layer_1-2" data-name="Layer 1">
            <g class="cls-2">
                <path class="cls-3"
                      d="M50.92,10.33a4.06,4.06,0,0,1-.72.37,2.44,2.44,0,0,1-1,.21,2.17,2.17,0,0,1-1-.2.72.72,0,0,1-.36-.69,1.39,1.39,0,0,1,.27-.89,1.83,1.83,0,0,1,.78-.53,7.34,7.34,0,0,1,1.21-.27c.41-.05,1.24-.15,1.35-.15s.17-.06.12.22c0,.13-.25,1.11-.36,1.55a1,1,0,0,1-.3.38m3.25-6.88a7,7,0,0,0-3.27-.59A14.06,14.06,0,0,0,48.67,3a7.69,7.69,0,0,0-.93.17,1.08,1.08,0,0,0-.81.85L46.71,5c-.13.59.21.56.35.52a8.05,8.05,0,0,1,1.09-.33,8.78,8.78,0,0,1,1.73-.23,4.41,4.41,0,0,1,1.66.24.83.83,0,0,1,.55.83.74.74,0,0,1,0,.26c0,.07-.09.14-.26.16-1,.06-1.8.16-2.71.29a8.49,8.49,0,0,0-2.32.64,3.59,3.59,0,0,0-1.58,1.25,3.35,3.35,0,0,0-.52,1.91,2.26,2.26,0,0,0,.74,1.74,2.83,2.83,0,0,0,1.93.66,4.93,4.93,0,0,0,1.16-.11,5.74,5.74,0,0,0,.88-.3,4.89,4.89,0,0,0,.75-.42l.69-.46v0l-.07.29h0a.55.55,0,0,0,.49.69H53a1,1,0,0,0,.78-.69l1.34-5.78a2.76,2.76,0,0,0,.07-.47,2.54,2.54,0,0,0,0-.44,1.94,1.94,0,0,0-1-1.81"
                      transform="translate(0 0)"/>
                <path class="cls-3"
                      d="M31.15,3a1.59,1.59,0,0,0-1.16.7s-2.62,4.5-2.88,5c-.14.24-.28.08-.3,0L26,3.72A1,1,0,0,0,25,3H23.35a.54.54,0,0,0-.55.7s1.25,7.09,1.5,8.76c.12.92,0,1.08,0,1.08l-1.62,2.83c-.24.39-.11.7.29.7h1.89a1.51,1.51,0,0,0,1.15-.7L33.29,4S34,3,33.34,3H31.15"
                      transform="translate(0 0)"/>
                <path class="cls-3"
                      d="M12.06,1.84a2.69,2.69,0,0,0-1-1.08A4.61,4.61,0,0,0,9.46.17,13.33,13.33,0,0,0,7.3,0H3.48A1,1,0,0,0,2.6.7L0,11.91a.54.54,0,0,0,.55.7H2.41a.93.93,0,0,0,.87-.7l.64-2.72a.92.92,0,0,1,.87-.69h.52a8.67,8.67,0,0,0,5.23-1.38,4.29,4.29,0,0,0,1.87-3.63,3.42,3.42,0,0,0-.35-1.65M8.1,5.5a3.8,3.8,0,0,1-2.31.61H5.34a.55.55,0,0,1-.56-.7L5.33,3a1,1,0,0,1,.88-.7h.6a2.88,2.88,0,0,1,1.59.36,1.18,1.18,0,0,1,.53,1.09A2,2,0,0,1,8.1,5.5"
                      transform="translate(0 0)"/>
                <path class="cls-3"
                      d="M45.33,1.88a2.83,2.83,0,0,0-1-1.08,4.67,4.67,0,0,0-1.6-.59A13.2,13.2,0,0,0,40.57,0H36.74a1,1,0,0,0-.88.7L33.29,12a.54.54,0,0,0,.55.7h1.83a.93.93,0,0,0,.88-.69l.63-2.72a.94.94,0,0,1,.88-.7h.52a8.67,8.67,0,0,0,5.23-1.38,4.32,4.32,0,0,0,1.87-3.63,3.66,3.66,0,0,0-.35-1.65m-4,3.67a3.87,3.87,0,0,1-2.31.6h-.45a.55.55,0,0,1-.56-.7l.55-2.38a.94.94,0,0,1,.87-.7h.6a2.92,2.92,0,0,1,1.6.36,1.24,1.24,0,0,1,.53,1.09,2,2,0,0,1-.83,1.73"
                      transform="translate(0 0)"/>
                <path class="cls-3"
                      d="M17.65,10.32a4.89,4.89,0,0,1-.72.37,2.53,2.53,0,0,1-1,.21,2.11,2.11,0,0,1-1-.2.73.73,0,0,1-.36-.69,1.39,1.39,0,0,1,.27-.89,1.89,1.89,0,0,1,.78-.53,7.34,7.34,0,0,1,1.21-.27c.42-.05,1.24-.15,1.35-.15s.18-.06.13.22c0,.13-.26,1.11-.37,1.55a.82.82,0,0,1-.29.38m3.24-6.88a6.94,6.94,0,0,0-3.27-.58A13.83,13.83,0,0,0,15.4,3c-.55.08-.6.1-.94.17a1.06,1.06,0,0,0-.8.85L13.43,5c-.12.59.21.56.36.52.3-.09.47-.18,1.09-.33a8.59,8.59,0,0,1,1.72-.23,4.41,4.41,0,0,1,1.66.24.84.84,0,0,1,.55.83.57.57,0,0,1,0,.26.3.3,0,0,1-.27.16c-1,.07-1.8.16-2.7.29a8.94,8.94,0,0,0-2.33.64A3.63,3.63,0,0,0,11.92,8.6a3.35,3.35,0,0,0-.53,1.91,2.27,2.27,0,0,0,.75,1.74,2.81,2.81,0,0,0,1.93.66,4.89,4.89,0,0,0,1.15-.11,4.59,4.59,0,0,0,.88-.3,4.52,4.52,0,0,0,.76-.42l.69-.46v0l-.07.29h0a.54.54,0,0,0,.49.69h1.73a1,1,0,0,0,.78-.69l1.34-5.78a2.76,2.76,0,0,0,.07-.47,2.54,2.54,0,0,0,0-.44,1.91,1.91,0,0,0-1-1.81"
                      transform="translate(0 0)"/>
                <path class="cls-3"
                      d="M60.48.14H58.84A.94.94,0,0,0,58,.77s0,0,0,.06,0,.17-.1.47L55.63,11.42c-.07.29-.11.48-.12.53h0a.54.54,0,0,0,.49.68v0h1.7a1,1,0,0,0,.86-.66.05.05,0,0,1,0,0L61,.83h0a.54.54,0,0,0-.56-.69"
                      transform="translate(0 0)"/>
                <path class="cls-3"
                      d="M63.59,2.4l-.19,0h-.17a.55.55,0,0,1-.42-.15.68.68,0,0,1-.14-.47V.88h-.2V.63h.2V.12H63V.63h.62V.88H63V1.7a1.41,1.41,0,0,0,0,.22.33.33,0,0,0,0,.14.19.19,0,0,0,.1.1.42.42,0,0,0,.18,0l.16,0,.11,0h0Z"
                      transform="translate(0 0)"/>
                <path class="cls-3"
                      d="M66.55,2.41h-.29v-1a1.5,1.5,0,0,0,0-.22.39.39,0,0,0,0-.17A.27.27,0,0,0,66.1.9a.56.56,0,0,0-.2,0,.62.62,0,0,0-.26.06,2.56,2.56,0,0,0-.25.16s0,0,0,.09V2.41h-.3v-1a1.77,1.77,0,0,0,0-.23.43.43,0,0,0,0-.17.27.27,0,0,0-.11-.1.49.49,0,0,0-.2,0,.53.53,0,0,0-.24.06,1.65,1.65,0,0,0-.25.15V2.41H64V.63h.3v.2a1.31,1.31,0,0,1,.28-.18.63.63,0,0,1,.3-.07.62.62,0,0,1,.31.08.48.48,0,0,1,.19.21,1.35,1.35,0,0,1,.33-.22A.71.71,0,0,1,66,.58a.53.53,0,0,1,.44.18.8.8,0,0,1,.13.5Z"
                      transform="translate(0 0)"/>
            </g>
        </g>
    </g>
</svg>