<?xml version="1.0" encoding="utf-8"?>
<svg id="Layer_1" data-name="Layer 1" xmlns="http://www.w3.org/2000/svg" viewBox="0 0 40 40">
    <defs>
        <style>.cls-1{fill:#fff;}</style>
    </defs>
    <path class="cls-1"
          d="M0,0V40H40V0ZM27.59,16.11v.51A11.14,11.14,0,0,1,10.45,26a7.53,7.53,0,0,0,1,0,7.8,7.8,0,0,0,4.86-1.67,3.91,3.91,0,0,1-3.66-2.72,4.52,4.52,0,0,0,.74.06,4.22,4.22,0,0,0,1-.13A3.92,3.92,0,0,1,11.2,17.7h0a3.93,3.93,0,0,0,1.77.5A3.91,3.91,0,0,1,11.78,13a11.12,11.12,0,0,0,8.07,4.1,4.59,4.59,0,0,1-.1-.9,3.92,3.92,0,0,1,6.78-2.68,7.67,7.67,0,0,0,2.47-1,3.88,3.88,0,0,1-1.72,2.16,8,8,0,0,0,2.25-.61A8.32,8.32,0,0,1,27.59,16.11Z"/>
</svg>