<?xml version="1.0" encoding="utf-8"?>
<svg id="Layer_1" data-name="Layer 1" xmlns="http://www.w3.org/2000/svg" viewBox="0 0 40 40">
    <defs>
        <style>.cls-1{fill:#fff;}</style>
    </defs>
    <path class="cls-1" d="M18.34,27.08q-.36.51-.69.51c-.15,0-.23-.08-.26-.25a2.94,2.94,0,0,1,0-.42V22.5H16.3v4.74a3,3,0,0,0,.1.89.66.66,0,0,0,.7.45,1.78,1.78,0,0,0,1.24-.74v.65h1.08v-6H18.34Z"/>
    <path class="cls-1" d="M19.75,16.35c.36,0,.52-.29.52-.85V13c0-.56-.16-.84-.52-.84s-.52.28-.52.84v2.5C19.22,16.06,19.39,16.35,19.75,16.35Z"/>
    <path class="cls-1"
          d="M22.57,22.42a1.46,1.46,0,0,0-1.13.65V20.45H20.36v8h1.08V27.9a1.49,1.49,0,0,0,1.13.67.86.86,0,0,0,.86-.67,4.48,4.48,0,0,0,.11-1.21V24.3a4.4,4.4,0,0,0-.11-1.2A.85.85,0,0,0,22.57,22.42Zm-.11,4.35c0,.55-.16.81-.47.81a.79.79,0,0,1-.55-.27V23.67A.79.79,0,0,1,22,23.4c.32,0,.47.28.47.81Z"/>
    <polygon class="cls-1" points="12.36 21.59 13.63 21.59 13.63 28.49 14.85 28.49 14.85 21.59 16.14 21.59 16.14 20.45 12.36 20.45 12.36 21.59"/>
    <path class="cls-1"
          d="M26,22.42a1.53,1.53,0,0,0-1.3.62,2.33,2.33,0,0,0-.34,1.41v2.1A2.27,2.27,0,0,0,24.74,28a1.57,1.57,0,0,0,1.31.62A1.49,1.49,0,0,0,27.36,28a1.4,1.4,0,0,0,.25-.65,4.09,4.09,0,0,0,0-.7v-.16h-1.1c0,.25,0,.49,0,.74a.47.47,0,0,1-.49.44c-.38,0-.56-.28-.56-.84V25.7h2.17V24.45A2.39,2.39,0,0,0,27.31,23,1.51,1.51,0,0,0,26,22.42Zm.53,2.36H25.47v-.56c0-.55.18-.82.55-.82s.55.28.55.82Z"/>
    <path class="cls-1"
          d="M0,0V40H40V0ZM22.27,11.21h1.1v4.45a2.94,2.94,0,0,0,0,.42.25.25,0,0,0,.25.27,1.11,1.11,0,0,0,.69-.52V11.21h1.1v6h-1.1v-.67a1.76,1.76,0,0,1-1.25.75.7.7,0,0,1-.72-.45,3.1,3.1,0,0,1-.1-.91Zm-4.13,2a2.36,2.36,0,0,1,.34-1.42,1.63,1.63,0,0,1,2.29-.27,1.72,1.72,0,0,1,.27.27,2.36,2.36,0,0,1,.34,1.42V15.3A2.41,2.41,0,0,1,21,16.73a1.63,1.63,0,0,1-2.29.27,1.72,1.72,0,0,1-.27-.27,2.4,2.4,0,0,1-.34-1.43Zm-2.93-4,.86,3.19.82-3.19h1.24L16.65,14v3.29H15.44V14a19.31,19.31,0,0,0-.74-2.57c-.27-.75-.53-1.51-.79-2.27ZM28.67,28.85a2.28,2.28,0,0,1-1.94,1.76,60.47,60.47,0,0,1-6.73.25,60.47,60.47,0,0,1-6.73-.25,2.24,2.24,0,0,1-1.94-1.76A18.87,18.87,0,0,1,11,24.61a19.46,19.46,0,0,1,.32-4.24,2.29,2.29,0,0,1,2-1.77A62.05,62.05,0,0,1,20,18.35a63,63,0,0,1,6.73.24,2.28,2.28,0,0,1,1.94,1.77A19,19,0,0,1,29,24.61,20.11,20.11,0,0,1,28.67,28.85Z"/>
</svg>